<?xml version="1.0" encoding="UTF-8"?>
<svg width="3300px" height="2200px" viewBox="0 0 3300 2200" version="1.1" xmlns="http://www.w3.org/2000/svg" xmlns:xlink="http://www.w3.org/1999/xlink">
    <title>custom.pedal.clutch.fill</title>
    <g id="custom.pedal.clutch.fill" stroke="none" fill="none" fill-rule="evenodd" stroke-width="1">
        <g id="编组">
            <g id="Notes" transform="translate(-132, 111)">
                <rect id="artboard" fill="#FFFFFF" x="0" y="0" width="3300" height="2200"></rect>
                <line x1="263" y1="292" x2="3036" y2="292" id="路径" stroke="#000000" stroke-width="0.5"></line>
                <text id="Weight/Scale-Variations" fill="#000000" fill-rule="nonzero" font-family="Helvetica" font-size="13" font-weight="normal">
                    <tspan x="263" y="322">Weight/Scale Variations</tspan>
                </text>
                <text id="Ultralight" fill="#000000" fill-rule="nonzero" font-family="Helvetica" font-size="13" font-weight="normal">
                    <tspan x="533.711" y="322">Ultralight</tspan>
                </text>
                <text id="Thin" fill="#000000" fill-rule="nonzero" font-family="Helvetica" font-size="13" font-weight="normal">
                    <tspan x="843.422" y="322">Thin</tspan>
                </text>
                <text id="Light" fill="#000000" fill-rule="nonzero" font-family="Helvetica" font-size="13" font-weight="normal">
                    <tspan x="1138.63" y="322">Light</tspan>
                </text>
                <text id="Regular" fill="#000000" fill-rule="nonzero" font-family="Helvetica" font-size="13" font-weight="normal">
                    <tspan x="1426.84" y="322">Regular</tspan>
                </text>
                <text id="Medium" fill="#000000" fill-rule="nonzero" font-family="Helvetica" font-size="13" font-weight="normal">
                    <tspan x="1723.06" y="322">Medium</tspan>
                </text>
                <text id="Semibold" fill="#000000" fill-rule="nonzero" font-family="Helvetica" font-size="13" font-weight="normal">
                    <tspan x="2015.77" y="322">Semibold</tspan>
                </text>
                <text id="Bold" fill="#000000" fill-rule="nonzero" font-family="Helvetica" font-size="13" font-weight="normal">
                    <tspan x="2326.48" y="322">Bold</tspan>
                </text>
                <text id="Heavy" fill="#000000" fill-rule="nonzero" font-family="Helvetica" font-size="13" font-weight="normal">
                    <tspan x="2618.19" y="322">Heavy</tspan>
                </text>
                <text id="Black" fill="#000000" fill-rule="nonzero" font-family="Helvetica" font-size="13" font-weight="normal">
                    <tspan x="2917.4" y="322">Black</tspan>
                </text>
                <line x1="263" y1="1903" x2="3036" y2="1903" id="路径" stroke="#000000" stroke-width="0.5"></line>
                <g id="编组" transform="translate(263, 1933)" fill="#000000" fill-rule="nonzero">
                    <path d="M9.24804,0.830078 C13.6035,0.830078 17.13866,-2.695322 17.13866,-7.050782 C17.13866,-11.406242 13.6035,-14.931642 9.24804,-14.931642 C4.90234,-14.931642 1.36718,-11.406242 1.36718,-7.050782 C1.36718,-2.695322 4.90234,0.830078 9.24804,0.830078 Z M9.24804,-0.654298 C5.71288,-0.654298 2.86132,-3.515618 2.86132,-7.050778 C2.86132,-10.585938 5.71288,-13.447258 9.24804,-13.447258 C12.7832,-13.447258 15.64452,-10.585938 15.64452,-7.050778 C15.64452,-3.515618 12.7832,-0.654298 9.24804,-0.654298 Z M9.970696,-4.208978 L9.970696,-9.902338 C9.970696,-10.351556 9.677728,-10.654292 9.228508,-10.654292 C8.79882,-10.654292 8.505852,-10.351558 8.505852,-9.902338 L8.505852,-4.208978 C8.505852,-3.769524 8.79882,-3.46679 9.228508,-3.46679 C9.677726,-3.46679 9.970696,-3.769524 9.970696,-4.208978 L9.970696,-4.208978 Z M6.406236,-6.328118 L12.089836,-6.328118 C12.52929,-6.328118 12.832024,-6.621086 12.832024,-7.050774 C12.832024,-7.490228 12.52929,-7.792962 12.089836,-7.792962 L6.406236,-7.792962 C5.957018,-7.792962 5.654282,-7.490228 5.654282,-7.050774 C5.654282,-6.621086 5.957016,-6.328118 6.406236,-6.328118 Z" id="形状"></path>
                </g>
                <g id="编组" transform="translate(281.506, 1933)" fill="#000000" fill-rule="nonzero">
                    <path d="M11.70898,2.91016 C17.20702,2.91016 21.66992,-1.55274 21.66992,-7.05078 C21.66992,-12.54882 17.20702,-17.01172 11.70898,-17.01172 C6.21094,-17.01172 1.74804,-12.54882 1.74804,-7.05078 C1.74804,-1.55274 6.21094,2.91016 11.70898,2.91016 Z M11.70898,1.250004 C7.11914,1.250004 3.4082,-2.460936 3.4082,-7.050776 C3.4082,-11.640616 7.11914,-15.351556 11.70898,-15.351556 C16.29882,-15.351556 20.00976,-11.640616 20.00976,-7.050776 C20.00976,-2.460936 16.29882,1.250004 11.70898,1.250004 Z M12.519526,-3.369136 L12.519526,-10.751956 C12.519526,-11.250002 12.17773,-11.5918 11.689448,-11.5918 C11.210932,-11.5918 10.878902,-11.250004 10.878902,-10.751956 L10.878902,-3.369136 C10.878902,-2.880854 11.210934,-2.539058 11.689448,-2.539058 C12.17773,-2.539058 12.519526,-2.87109 12.519526,-3.369136 L12.519526,-3.369136 Z M8.007806,-6.249996 L15.400386,-6.249996 C15.888668,-6.249996 16.230464,-6.572262 16.230464,-7.050778 C16.230464,-7.53906 15.888668,-7.880856 15.400386,-7.880856 L8.007806,-7.880856 C7.50976,-7.880856 7.177728,-7.53906 7.177728,-7.050778 C7.177728,-6.572262 7.50976,-6.249996 8.007806,-6.249996 L8.007806,-6.249996 Z" id="形状"></path>
                </g>
                <g id="编组" transform="translate(304.924, 1933)" fill="#000000" fill-rule="nonzero">
                    <path d="M14.9707,5.66406 C21.99218,5.66406 27.6953,-0.0293 27.6953,-7.05078 C27.6953,-14.07226 21.99218,-19.77538 14.9707,-19.77538 C7.94922,-19.77538 2.25586,-14.07226 2.25586,-7.05078 C2.25586,-0.0293 7.94922,5.66406 14.9707,5.66406 Z M14.9707,3.847654 C8.9453,3.847654 4.07226,-1.025386 4.07226,-7.050786 C4.07226,-13.076186 8.9453,-17.949226 14.9707,-17.949226 C20.9961,-17.949226 25.86914,-13.076186 25.86914,-7.050786 C25.86914,-1.025386 20.9961,3.847654 14.9707,3.847654 Z M15.859372,-2.216806 L15.859372,-11.914066 C15.859372,-12.460942 15.488278,-12.8418 14.951168,-12.8418 C14.43359,-12.8418 14.062496,-12.46094 14.062496,-11.914066 L14.062496,-2.216806 C14.062496,-1.679696 14.43359,-1.298838 14.951168,-1.298838 C15.488278,-1.298838 15.859372,-1.669932 15.859372,-2.216806 L15.859372,-2.216806 Z M10.117192,-6.171886 L19.814452,-6.171886 C20.351562,-6.171886 20.73242,-6.533214 20.73242,-7.050792 C20.73242,-7.597668 20.361326,-7.96876 19.814452,-7.96876 L10.117192,-7.96876 C9.570316,-7.96876 9.199224,-7.597666 9.199224,-7.050792 C9.199224,-6.533214 9.570318,-6.171886 10.117192,-6.171886 Z" id="形状"></path>
                </g>
                <text id="Design-Variations" fill="#000000" fill-rule="nonzero" font-family="Helvetica" font-size="13" font-weight="normal">
                    <tspan x="263" y="1953">Design Variations</tspan>
                </text>
                <text id="Symbols-are-supported-in-up-to-nine-weights-and-three-scales." fill="#000000" fill-rule="nonzero" font-family="Helvetica" font-size="13" font-weight="normal">
                    <tspan x="263" y="1971">Symbols are supported in up to nine weights and three scales.</tspan>
                </text>
                <text id="For-optimal-layout-with-text-and-other-symbols,-vertically-align" fill="#000000" fill-rule="nonzero" font-family="Helvetica" font-size="13" font-weight="normal">
                    <tspan x="263" y="1989">For optimal layout with text and other symbols, vertically align</tspan>
                </text>
                <text id="symbols-with-the-adjacent-text." fill="#000000" fill-rule="nonzero" font-family="Helvetica" font-size="13" font-weight="normal">
                    <tspan x="263" y="2007">symbols with the adjacent text.</tspan>
                </text>
                <line x1="776" y1="1919" x2="776" y2="1933" id="路径" stroke="#00AEEF" stroke-width="0.5"></line>
                <g id="编组" transform="translate(776, 1933)" fill="#000000" fill-rule="nonzero">
                    <path d="M3.31054,0.156258 C3.828118,0.156258 4.082024,-0.0390624 4.267572,-0.585938 L8.378892,-12.089838 L8.4277202,-12.089838 L12.5488202,-0.585938 C12.734367,-0.039062 12.9882742,0.156258 13.4960862,0.156258 C14.0136642,0.156258 14.3456962,-0.15625 14.3456962,-0.644532 C14.3456962,-0.8105476 14.3163994,-0.966798 14.2382744,-1.171876 L9.6581944,-13.369136 C9.4335844,-13.96484 9.0331944,-14.267574 8.4081944,-14.267574 C7.8027264,-14.267574 7.3925704,-13.974606 7.1777264,-13.378902 L2.5976464,-1.162102 C2.5195214,-0.957024 2.4902246,-0.800774 2.4902246,-0.634758 C2.4902246,-0.146476 2.8027246,0.156258 3.3105366,0.156258 L3.31054,0.156258 Z M5.35156,-4.03321 L11.48438,-4.03321 C11.88477,-4.03321 12.216802,-4.365242 12.216802,-4.765632 C12.216802,-5.175788 11.88477,-5.498054 11.48438,-5.498054 L5.35156,-5.498054 C4.95117,-5.498054 4.619138,-5.175788 4.619138,-4.765632 C4.619138,-4.365242 4.95117,-4.03321 5.35156,-4.03321 Z" id="形状"></path>
                </g>
                <line x1="792.836" y1="1919" x2="792.836" y2="1933" id="路径" stroke="#00AEEF" stroke-width="0.5"></line>
                <text id="Margins" fill="#000000" fill-rule="nonzero" font-family="Helvetica" font-size="13" font-weight="normal">
                    <tspan x="776" y="1953">Margins</tspan>
                </text>
                <text id="Leading-and-trailing-margins-on-the-left-and-right-side-of-each-symbol" fill="#000000" fill-rule="nonzero" font-family="Helvetica" font-size="13" font-weight="normal">
                    <tspan x="776" y="1971">Leading and trailing margins on the left and right side of each symbol</tspan>
                </text>
                <text id="can-be-adjusted-by-modifying-the-x-location-of-the-margin-guidelines." fill="#000000" fill-rule="nonzero" font-family="Helvetica" font-size="13" font-weight="normal">
                    <tspan x="776" y="1989">can be adjusted by modifying the x-location of the margin guidelines.</tspan>
                </text>
                <text id="Modifications-are-automatically-applied-proportionally-to-all" fill="#000000" fill-rule="nonzero" font-family="Helvetica" font-size="13" font-weight="normal">
                    <tspan x="776" y="2007">Modifications are automatically applied proportionally to all</tspan>
                </text>
                <text id="scales-and-weights." fill="#000000" fill-rule="nonzero" font-family="Helvetica" font-size="13" font-weight="normal">
                    <tspan x="776" y="2025">scales and weights.</tspan>
                </text>
                <g id="编组" transform="translate(1289, 1933)" fill="#000000" fill-rule="nonzero">
                    <path d="M2.8418,2.62696 L4.414066,4.199226 C5.273442,5.078132 6.2793,5.019538 7.187506,3.994148 L19.326186,-9.648432 L18.349624,-10.624994 L6.298844,2.910166 C5.937516,3.30079 5.605484,3.398448 5.136734,2.92969724 L4.101578,1.90430724 C3.642594,1.44532324 3.74025,1.11329124 4.1406404,0.74219724 L17.6367404,-11.6894428 L16.6601784,-12.6562388 L3.0468984,-0.13669876 C2.0508044,0.78126924 1.9824444,1.75783324 2.8418204,2.62698124 L2.8418,2.62696 Z M11.8164,-16.86522 C11.406244,-16.46483 11.367182,-15.888658 11.601556,-15.507798 C11.826166,-15.14647 12.294916,-14.90233 12.919916,-15.05858 C14.091792,-15.390612 15.439456,-15.537096 16.699216,-14.8730332 L16.162106,-13.4472512 C15.83984,-12.6464692 16.0156216,-12.0702972 16.503902,-11.5624852 L18.554682,-9.5019452 C19.023432,-9.0234292 19.462886,-9.0136632 19.970698,-9.1113212 L20.85937,-9.2578056 L21.376948,-8.7499936 L21.3378856,-8.3007756 C21.3183544,-7.8417916 21.4453074,-7.4413996 21.8945256,-7.0019476 L22.5683536,-6.3378856 C23.0273376,-5.8789016 23.6718696,-5.8398396 24.1308536,-6.2988232 L26.7285136,-8.9062432 C27.1874976,-9.3749932 27.1582016,-9.9804612 26.6894512,-10.4394472 L26.0058572,-11.1230412 C25.5664032,-11.5624952 25.1953112,-11.7285092 24.7363252,-11.6992132 L24.2675752,-11.650385 L23.7792932,-12.138667 L23.9843712,-13.076167 C24.1113244,-13.623043 23.935543,-14.072261 23.4081992,-14.599605 L21.1523392,-16.835925 C18.5644392,-19.404285 14.0331992,-19.042965 11.8163992,-16.8652218 L11.8164,-16.86522 Z M13.232416,-16.455064 C14.990228,-17.73436 18.427736,-17.587876 19.970696,-16.06444 L22.431636,-13.62304 C22.636714,-13.417962 22.675776,-13.261712 22.6171828,-12.958978 L22.3242148,-11.630854 L23.6718708,-10.292964 L24.5507768,-10.3417922 C24.7753868,-10.3515578 24.8535108,-10.3320266 25.0195268,-10.166011 L25.5273388,-9.667965 L23.3593788,-7.500005 L22.8613328,-7.998051 C22.6953172,-8.1738322 22.6660204,-8.242191 22.675786,-8.476567 L22.7343798,-9.345707 L21.3964898,-10.693363 L20.0293018,-10.458987 C19.7460978,-10.4003932 19.6191458,-10.4199246 19.3945358,-10.6347682 L17.6074258,-12.4121122 C17.3925818,-12.6171902 17.3730498,-12.7539082 17.5097696,-13.0859402 L18.4277376,-15.3808602 C17.2070336,-16.6503922 15.0195376,-16.8847662 13.3105576,-16.2988282 C13.173896,-16.25 13.1250108,-16.3769532 13.2324326,-16.4550782 L13.232416,-16.455064 Z" id="形状"></path>
                </g>
                <text id="Exporting" fill="#000000" fill-rule="nonzero" font-family="Helvetica" font-size="13" font-weight="normal">
                    <tspan x="1289" y="1953">Exporting</tspan>
                </text>
                <text id="Symbols-should-be-outlined-when-exporting-to-ensure-the" fill="#000000" fill-rule="nonzero" font-family="Helvetica" font-size="13" font-weight="normal">
                    <tspan x="1289" y="1971">Symbols should be outlined when exporting to ensure the</tspan>
                </text>
                <text id="design-is-preserved-when-submitting-to-Xcode." fill="#000000" fill-rule="nonzero" font-family="Helvetica" font-size="13" font-weight="normal">
                    <tspan x="1289" y="1989">design is preserved when submitting to Xcode.</tspan>
                </text>
                <text id="template-version" fill="#000000" fill-rule="nonzero" font-family="Helvetica" font-size="13" font-weight="normal">
                    <tspan x="2952" y="1933">Template v.7.0</tspan>
                </text>
                <text id="Requires-Xcode-26-or-greater" fill="#000000" fill-rule="nonzero" font-family="Helvetica" font-size="13" font-weight="normal">
                    <tspan x="2865" y="1951">Requires Xcode 26 or greater</tspan>
                </text>
                <text id="descriptive-name" fill="#000000" fill-rule="nonzero" font-family="Helvetica" font-size="13" font-weight="normal">
                    <tspan x="2810" y="1969">Generated from custom.pedal.clutch.fill</tspan>
                </text>
                <text id="Typeset-at-100.0-points" fill="#000000" fill-rule="nonzero" font-family="Helvetica" font-size="13" font-weight="normal">
                    <tspan x="2901" y="1987">Typeset at 100.0 points</tspan>
                </text>
                <text id="Small" fill="#000000" fill-rule="nonzero" font-family="Helvetica" font-size="13" font-weight="normal">
                    <tspan x="263" y="726">Small</tspan>
                </text>
                <text id="Medium" fill="#000000" fill-rule="nonzero" font-family="Helvetica" font-size="13" font-weight="normal">
                    <tspan x="263" y="1156">Medium</tspan>
                </text>
                <text id="Large" fill="#000000" fill-rule="nonzero" font-family="Helvetica" font-size="13" font-weight="normal">
                    <tspan x="263" y="1586">Large</tspan>
                </text>
            </g>
            <g id="Guides">
                <g id="H-reference" transform="translate(339, 696)" fill="#27AAE1" fill-rule="nonzero">
                    <path d="M0.993654,0 L3.63775,0 L29.3281,-67.1323 L30.0303,-67.1323 L30.0303,-70.459 L28.1226,-70.459 L0.993654,0 Z M11.6885,-24.4799 L46.9815,-24.4799 L46.2315,-26.7285 L12.4385,-26.7285 L11.6885,-24.4799 Z M55.1196,0 L57.7637,0 L30.6382,-70.459 L29.4326,-70.459 L29.4326,-67.1323 L55.1196,0 Z" id="形状"></path>
                </g>
                <line x1="263" y1="696" x2="3036" y2="696" id="Baseline-S" stroke="#27AAE1" stroke-width="0.5"></line>
                <line x1="263" y1="625.541" x2="3036" y2="625.541" id="Capline-S" stroke="#27AAE1" stroke-width="0.5"></line>
                <g id="H-reference" transform="translate(339, 1126)" fill="#27AAE1" fill-rule="nonzero">
                    <path d="M0.993654,0 L3.63775,0 L29.3281,-67.1323 L30.0303,-67.1323 L30.0303,-70.459 L28.1226,-70.459 L0.993654,0 Z M11.6885,-24.4799 L46.9815,-24.4799 L46.2315,-26.7285 L12.4385,-26.7285 L11.6885,-24.4799 Z M55.1196,0 L57.7637,0 L30.6382,-70.459 L29.4326,-70.459 L29.4326,-67.1323 L55.1196,0 Z" id="形状"></path>
                </g>
                <line x1="263" y1="1126" x2="3036" y2="1126" id="Baseline-M" stroke="#27AAE1" stroke-width="0.5"></line>
                <line x1="263" y1="1055.54" x2="3036" y2="1055.54" id="Capline-M" stroke="#27AAE1" stroke-width="0.5"></line>
                <g id="H-reference" transform="translate(339, 1556)" fill="#27AAE1" fill-rule="nonzero">
                    <path d="M0.993654,0 L3.63775,0 L29.3281,-67.1323 L30.0303,-67.1323 L30.0303,-70.459 L28.1226,-70.459 L0.993654,0 Z M11.6885,-24.4799 L46.9815,-24.4799 L46.2315,-26.7285 L12.4385,-26.7285 L11.6885,-24.4799 Z M55.1196,0 L57.7637,0 L30.6382,-70.459 L29.4326,-70.459 L29.4326,-67.1323 L55.1196,0 Z" id="形状"></path>
                </g>
                <line x1="263" y1="1556" x2="3036" y2="1556" id="Baseline-L" stroke="#27AAE1" stroke-width="0.5"></line>
                <line x1="263" y1="1485.54" x2="3036" y2="1485.54" id="Capline-L" stroke="#27AAE1" stroke-width="0.5"></line>
                <line x1="2979.84" y1="600.785" x2="2979.84" y2="720.121" id="right-margin-Black-S" stroke="#00AEEF" stroke-width="0.5"></line>
                <line x1="2886.96" y1="600.785" x2="2886.96" y2="720.121" id="left-margin-Black-S" stroke="#00AEEF" stroke-width="0.5"></line>
                <line x1="1492.69" y1="600.785" x2="1492.69" y2="720.121" id="right-margin-Regular-S" stroke="#00AEEF" stroke-width="0.5"></line>
                <line x1="1407" y1="600.785" x2="1407" y2="720.121" id="left-margin-Regular-S" stroke="#00AEEF" stroke-width="0.5"></line>
                <line x1="599.697" y1="600.785" x2="599.697" y2="720.121" id="right-margin-Ultralight-S" stroke="#00AEEF" stroke-width="0.5"></line>
                <line x1="519.725" y1="600.785" x2="519.725" y2="720.121" id="left-margin-Ultralight-S" stroke="#00AEEF" stroke-width="0.5"></line>
            </g>
            <g id="Symbols" stroke="#000000" stroke-width="0.5">
                <g id="Black-S" transform="translate(2886.96, 696)">
                    <path d="M89.04,-30.7542233 C89.04,-34.0841073 88.4635916,-42.9959085 80.6884278,-55.9114066 C77.3818522,-61.2782822 75.1472833,-68.9695255 70.646081,-74.1848094 C66.9376674,-78.4815348 61.2562166,-80.8707639 55.952927,-80.8707639 C48.3592083,-80.8707639 37.0926746,-73.8051814 26.168992,-66.4816588 C16.1886934,-59.7906056 5.9920011,-53.2653946 4.74344577,-44.7877865 C3.82984169,-38.5844752 3.3375238,-21.6603505 6.3034783,-16.6773349 C8.44477039,-11.6370806 15.4777345,-6.9666574 24.2758943,-0.35288239 C31.7394868,5.25766824 39.6476419,10.7692546 46.6661827,11.0933544 C50.7565645,11.6278579 63.9122621,6.10365289 70.646081,0.339657139 C72.1214088,-0.92318983 73.2642168,-2.34668146 74.6576578,-3.94319874 C77.1713877,-6.82327285 79.8540723,-10.1930123 82.1873013,-13.6775926 C85.6367741,-18.8292366 89.04,-24.2571292 89.04,-30.7542233 Z M30.8183094,-17.526422 C29.232588,-17.526422 27.4912068,-19.2432861 27.4912068,-21.3755575 C27.4912068,-23.6281404 29.232588,-25.4780069 30.8183094,-25.4780069 L51.2649772,-25.4780069 C53.0071117,-25.4780069 54.6558502,-23.6281404 54.6558502,-21.3755575 C54.6558502,-18.9822692 53.0071117,-17.526422 51.2649772,-17.526422 L30.8183094,-17.526422 Z M57.8405821,-21.3755575 C57.8405821,-23.6281404 59.4579176,-25.1765864 61.6186043,-25.1765864 C63.7792911,-25.1765864 65.3966266,-23.628118 65.3966266,-21.3755575 C65.3966266,-18.7328695 63.2913051,-17.6715117 61.6186043,-17.6715117 C59.7260268,-17.6715117 57.8405821,-19.2432861 57.8405821,-21.3755575 Z M31.4193002,-29.1413523 C29.2248456,-29.1413523 27.6422775,-30.8582164 27.6422775,-32.9904877 C27.6422775,-35.2430706 29.2248456,-37.0929372 31.4193002,-37.0929372 L61.417509,-37.0929372 C63.8284211,-37.0929372 65.4749063,-35.2430707 65.4749063,-32.9904877 C65.4749063,-30.5971995 63.8284211,-29.1413523 61.417509,-29.1413523 L31.4193002,-29.1413523 Z M31.4193002,-40.7562825 C29.2248456,-40.7562825 27.6422775,-42.4731466 27.6422775,-44.605418 C27.6422775,-46.8580009 29.2248456,-48.7078674 31.4193002,-48.7078674 L61.417509,-48.7078674 C63.8284211,-48.7078674 65.4749063,-46.8580009 65.4749063,-44.605418 C65.4749063,-42.2121297 63.8284211,-40.7562825 61.417509,-40.7562825 L31.4193002,-40.7562825 Z" id="形状"></path>
                </g>
                <g id="Regular-S" transform="translate(1407, 696)">
                    <path d="M81.5940335,-29.8848806 C81.5940335,-33.0384703 81.0573792,-41.4784533 73.8184576,-53.710165 C70.7399319,-58.7929017 68.6594781,-66.0769468 64.4687175,-71.0161175 C61.0160679,-75.085361 55.7264589,-77.3480969 50.7889297,-77.3480969 C43.7189392,-77.3480969 33.2294426,-70.6565881 23.0591511,-63.7207954 C13.7671798,-57.3839872 4.27373907,-51.204241 3.11129486,-43.1754637 C2.26070077,-37.3005749 1.80233736,-21.2724655 4.56373412,-16.5532662 C6.55734428,-11.7798584 13.1052546,-7.35670189 21.2966177,-1.09308054 C28.2454566,4.22043023 35.6081973,9.44021615 42.1426792,9.74715713 C45.9509531,10.2533624 58.1993206,5.02162584 64.4687175,-0.437206188 C65.8422939,-1.63319414 66.9062841,-2.98132173 68.2036214,-4.49331446 C70.5439828,-7.22090856 73.0416464,-10.4122436 75.2139559,-13.7123395 C78.4255234,-18.5912396 81.5940335,-23.7317628 81.5940335,-29.8848806 Z M27.3878116,-17.3574 C25.9114552,-17.3574 24.2901746,-18.983368 24.2901746,-21.0027503 C24.2901746,-23.1360745 25.9114552,-24.8880034 27.3878116,-24.8880034 L46.4243013,-24.8880034 C48.0462832,-24.8880034 49.5813105,-23.1360746 49.5813105,-21.0027503 C49.5813105,-18.7361701 48.0462832,-17.3574 46.4243013,-17.3574 L27.3878116,-17.3574 Z M52.5463959,-21.0027503 C52.5463959,-23.1360745 54.052186,-24.602541 56.0638532,-24.602541 C58.0755204,-24.602541 59.5813105,-23.1360534 59.5813105,-21.0027503 C59.5813105,-18.4999744 57.6211901,-17.4948082 56.0638532,-17.4948082 C54.3018041,-17.4948082 52.5463959,-18.983368 52.5463959,-21.0027503 Z M27.9473529,-28.3574 C25.9042467,-28.3574 24.4308262,-29.983368 24.4308262,-32.0027503 C24.4308262,-34.1360745 25.9042467,-35.8880034 27.9473529,-35.8880034 L55.8766271,-35.8880034 C58.121262,-35.8880034 59.6541914,-34.1360746 59.6541914,-32.0027503 C59.6541914,-29.7361701 58.121262,-28.3574 55.8766271,-28.3574 L27.9473529,-28.3574 Z M27.9473529,-39.3574 C25.9042467,-39.3574 24.4308262,-40.983368 24.4308262,-43.0027503 C24.4308262,-45.1360745 25.9042467,-46.8880034 27.9473529,-46.8880034 L55.8766271,-46.8880034 C58.121262,-46.8880034 59.6541914,-45.1360746 59.6541914,-43.0027503 C59.6541914,-40.7361701 58.121262,-39.3574 55.8766271,-39.3574 L27.9473529,-39.3574 Z" id="形状"></path>
                </g>
                <g id="Ultralight-S" transform="translate(519.725, 696)">
                    <path d="M76.7313648,-33.1342614 C76.7313648,-36.1383959 76.2363317,-44.1783904 69.558838,-55.8304159 C66.7190731,-60.6722711 64.7999728,-67.6111101 60.9342344,-72.3162032 C57.7493615,-76.1925968 52.8699978,-78.3480969 48.3154079,-78.3480969 C41.7937436,-78.3480969 32.1177794,-71.9737127 22.7362638,-65.3666217 C14.1649485,-59.330128 5.40778923,-53.4432528 4.33550054,-45.794976 C3.55087585,-40.1985104 3.12806167,-24.9300065 5.67529317,-20.4344599 C7.5142852,-15.8872739 13.5543602,-11.67374 21.1104269,-5.70696468 C27.5203358,-0.645272264 34.3120454,4.32713713 40.3397335,4.61953153 C43.8526496,5.10174671 55.1510722,0.117953017 60.9342344,-5.08217358 C62.2012805,-6.22148118 63.182751,-7.50571819 64.3794709,-8.94605443 C66.5383213,-11.5443822 68.8422739,-14.5844732 70.8461058,-17.7281706 C73.8085943,-22.3758495 76.7313648,-27.2727526 76.7313648,-33.1342614 Z M26.729207,-21.2004841 C25.3673521,-21.2004841 23.8718129,-22.7493941 23.8718129,-24.6730737 C23.8718129,-26.7052953 25.3673521,-28.3741966 26.729207,-28.3741966 L44.2892864,-28.3741966 C45.7854724,-28.3741966 47.2014479,-26.7052953 47.2014479,-24.6730737 C47.2014479,-22.5139115 45.7854724,-21.2004841 44.2892864,-21.2004841 L26.729207,-21.2004841 Z M49.9365705,-24.6730737 C49.9365705,-26.7052953 51.3255763,-28.1022628 53.1812249,-28.1022628 C55.0368736,-28.1022628 56.4258793,-26.7052751 56.4258793,-24.6730737 C56.4258793,-22.2889096 54.6177797,-21.3313803 53.1812249,-21.3313803 C51.5558349,-21.3313803 49.9365705,-22.7493941 49.9365705,-24.6730737 Z M27.245352,-31.6791712 C25.3607027,-31.6791712 24.001556,-33.2280812 24.001556,-35.1517608 C24.001556,-37.1839823 25.3607027,-38.8528837 27.245352,-38.8528837 L53.0085195,-38.8528837 C55.0790675,-38.8528837 56.4931078,-37.1839824 56.4931078,-35.1517608 C56.4931078,-32.9925986 55.0790675,-31.6791712 53.0085195,-31.6791712 L27.245352,-31.6791712 Z M27.245352,-42.1578583 C25.3607027,-42.1578583 24.001556,-43.7067683 24.001556,-45.6304479 C24.001556,-47.6626694 25.3607027,-49.3315708 27.245352,-49.3315708 L53.0085195,-49.3315708 C55.0790675,-49.3315708 56.4931078,-47.6626694 56.4931078,-45.6304479 C56.4931078,-43.4712856 55.0790675,-42.1578583 53.0085195,-42.1578583 L27.245352,-42.1578583 Z" id="形状"></path>
                </g>
            </g>
        </g>
    </g>
</svg>